Land_normalized_precision_landing01_filtered_grf
version=1
nRows=22
nColumns=37
inDegrees=yes
endheader
time		1_ground_force_vx		1_ground_force_vy		1_ground_force_vz		1_ground_force_px		1_ground_force_py		1_ground_force_pz		1_ground_torque_x		1_ground_torque_y		1_ground_torque_z		2_ground_force_vx		2_ground_force_vy		2_ground_force_vz		2_ground_force_px		2_ground_force_py		2_ground_force_pz		2_ground_torque_x		2_ground_torque_y		2_ground_torque_z		3_ground_force_vx		3_ground_force_vy		3_ground_force_vz		3_ground_force_px		3_ground_force_py		3_ground_force_pz		3_ground_torque_x		3_ground_torque_y		3_ground_torque_z		4_ground_force_vx		4_ground_force_vy		4_ground_force_vz		4_ground_force_px		4_ground_force_py		4_ground_force_pz		4_ground_torque_x		4_ground_torque_y		4_ground_torque_z		
0.913667		-46.904318		842.261987		207.697784		0.074055		0.000000		0.263975		-1.132737		20.340288		5.015774		46.675612		945.585413		208.311012		-0.166219		0.000000		0.269690		1.698558		34.409580		7.580468		10.004826		-1.414348		-4.314109		0.380955		1.275654		1.882566		-0.025603		0.003620		0.011040		-5.244980		-0.491273		-0.029751		-0.351435		1.268440		1.872371		0.024168		0.002264		0.000137		
0.916596		-42.744991		800.139197		207.677685		0.072467		0.000000		0.260408		-0.978848		18.322868		4.755646		43.808959		922.213654		201.483578		-0.165368		0.000000		0.269690		1.581411		33.289879		7.273140		10.053784		-1.361069		-4.536290		0.380979		1.275661		1.882546		-0.022048		0.002985		0.009948		-5.235453		-0.545058		-0.102272		-0.351448		1.268433		1.872378		0.025018		0.002605		0.000489		
0.919525		-40.538828		759.221766		209.500961		0.070166		0.000000		0.254549		-0.863540		16.172638		4.462680		44.070473		893.125180		204.480801		-0.165484		0.000000		0.267796		1.668426		33.811924		7.741276		10.042389		-1.331560		-4.785318		0.381004		1.275667		1.882533		-0.017350		0.002300		0.008267		-5.198003		-0.584778		-0.214640		-0.351466		1.268426		1.872378		0.025736		0.002895		0.001062		
0.922455		-39.741012		723.793346		210.653350		0.067805		0.000000		0.248533		-0.798743		14.547381		4.233858		43.993517		862.445503		210.871311		-0.165940		0.000000		0.264855		1.772246		34.742890		8.494850		9.952883		-1.344390		-4.992024		0.381027		1.275670		1.882521		-0.012534		0.001693		0.006286		-5.143733		-0.594132		-0.320832		-0.351482		1.268420		1.872363		0.026510		0.003062		0.001654		
0.925384		-40.022808		696.445188		210.597106		0.066069		0.000000		0.244241		-0.777627		13.531734		4.091825		41.819730		834.222773		215.482384		-0.166204		0.000000		0.261826		1.764332		35.195296		9.091130		9.794950		-1.407558		-5.096592		0.381043		1.275668		1.882504		-0.008514		0.001224		0.004430		-5.083039		-0.567005		-0.371109		-0.351489		1.268416		1.872327		0.027260		0.003041		0.001990		
0.928313		-41.162514		677.781041		210.011076		0.065410		0.000000		0.242574		-0.779259		12.831414		3.975811		38.167723		811.135177		216.296715		-0.166092		0.000000		0.259441		1.645168		34.963090		9.323247		9.602702		-1.516670		-5.069516		0.381048		1.275662		1.882480		-0.005993		0.000946		0.003164		-5.020891		-0.510247		-0.333926		-0.351488		1.268413		1.872276		0.027732		0.002818		0.001844		
0.931242		-43.031630		666.749961		209.587831		0.065787		0.000000		0.243172		-0.789526		12.233431		3.845477		35.025727		794.212341		214.235376		-0.165832		0.000000		0.258023		1.515949		34.374311		9.272323		9.420898		-1.655292		-4.921968		0.381042		1.275652		1.882451		-0.005374		0.000945		0.002808		-4.957320		-0.440009		-0.210234		-0.351480		1.268411		1.872215		0.031633		-0.030253		-0.022264		
0.934172		-45.603204		661.355568		209.310986		0.066732		0.000000		0.244834		-0.809844		11.744845		3.717098		34.112397		783.149939		211.482779		-0.165786		0.000000		0.257483		1.476550		33.898521		9.153998		9.288926		-1.797153		-4.701291		0.381025		1.275639		1.882421		-0.006646		0.001287		0.003364		-4.891755		-0.374400		-0.034079		-0.351470		1.268409		1.872156		0.030470		-0.037534		-0.020528		
0.937101		-48.851938		659.475420		208.578411		0.067735		0.000000		0.246312		-0.841682		11.362394		3.593693		35.738258		776.868844		209.538533		-0.166089		0.000000		0.257507		1.553852		33.777130		9.110431		9.228477		-1.912084		-4.472981		0.380998		1.275628		1.882396		-0.009266		0.001920		0.004491		-4.826496		-0.327648		0.140702		-0.351465		1.268407		1.872105		0.029216		-0.045098		-0.020569		
0.940030		-52.604459		659.530996		206.765144		0.068543		0.000000		0.246950		-0.873233		10.948272		3.432323		38.768190		774.115749		208.165743		-0.166539		0.000000		0.257798		1.696764		33.880634		9.110765		9.236962		-1.975187		-4.297456		0.380965		1.275619		1.882381		-0.012197		0.002608		0.005674		-4.766630		-0.308361		0.262025		-0.351467		1.268406		1.872071		0.028045		-0.050327		-0.022417		
0.942960		-56.506044		660.795583		203.601300		0.069164		0.000000		0.246815		-0.889799		10.405625		3.206142		41.509428		773.944280		205.721947		-0.166753		0.000000		0.258225		1.814908		33.839031		8.994747		9.289790		-1.975182		-4.212989		0.380931		1.275616		1.882384		-0.014250		0.003030		0.006463		-4.717187		-0.320419		0.299727		-0.351479		1.268407		1.872057		0.027020		-0.051603		-0.025413		
0.945889		-60.150911		663.306751		199.165669		0.069725		0.000000		0.246445		-0.893917		9.857700		2.959914		42.855155		775.909326		200.473630		-0.166465		0.000000		0.258817		1.840124		33.316228		8.608042		9.353329		-1.917293		-4.227979		0.380902		1.275618		1.882403		-0.014649		0.003003		0.006621		-4.681352		-0.363611		0.256523		-0.351496		1.268412		1.872058		0.026172		-0.048895		-0.028517		
0.948818		-63.220134		667.457824		193.750118		0.070342		0.000000		0.246398		-0.904339		9.547770		2.771549		42.933649		779.965406		191.898552		-0.165729		0.000000		0.259650		1.774327		32.233648		7.930742		9.402007		-1.819107		-4.323519		0.380879		1.275623		1.882437		-0.013396		0.002592		0.006160		-4.662696		-0.433159		0.163212		-0.351515		1.268420		1.872072		0.025588		-0.043644		-0.030798		
0.951747		-65.504492		673.540837		187.884587		0.071052		0.000000		0.246925		-0.933415		9.597697		2.677273		42.883129		786.191000		181.061098		-0.164871		0.000000		0.260727		1.680750		30.813753		7.096670		9.429371		-1.702973		-4.464396		0.380865		1.275630		1.882485		-0.011200		0.002023		0.005303		-4.666925		-0.519305		0.061862		-0.351530		1.268433		1.872094		0.025415		-0.038007		-0.031757		
0.954677		-66.861181		681.478060		182.386233		0.071780		0.000000		0.247921		-0.974289		9.930384		2.657681		44.020235		794.573866		169.953172		-0.164251		0.000000		0.261946		1.631076		29.441614		6.297498		9.448910		-1.589738		-4.613641		0.380859		1.275638		1.882543		-0.009074		0.001527		0.004431		-4.699851		-0.608943		-0.012958		-0.351539		1.268448		1.872122		0.025788		-0.033881		-0.031447		
0.957606		-67.200186		690.825206		178.155875		0.072357		0.000000		0.249041		-1.010220		10.385197		2.678209		46.969049		804.963522		160.310409		-0.164038		0.000000		0.263161		1.658568		28.425212		5.661025		9.485184		-1.496442		-4.744438		0.380857		1.275644		1.882606		-0.007931		0.001251		0.003967		-4.762982		-0.689294		-0.047419		-0.351543		1.268462		1.872156		0.026706		-0.032157		-0.030397		
0.960535		-66.505474		700.945614		175.728631		0.072608		0.000000		0.249891		-1.029994		10.855820		2.721575		51.303804		817.104852		152.700817		-0.164149		0.000000		0.264289		1.746409		27.814806		5.198059		9.561440		-1.436749		-4.844137		0.380860		1.275649		1.882671		-0.008296		0.001247		0.004203		-4.848835		-0.751478		-0.051134		-0.351545		1.268476		1.872196		0.027993		-0.032512		-0.029350		
0.963465		-64.837794		711.236986		174.974481		0.072460		0.000000		0.250240		-1.032587		11.326977		2.786597		55.876910		830.665013		146.415301		-0.164355		0.000000		0.265340		1.843365		27.403530		4.830239		9.689630		-1.420190		-4.910803		0.380863		1.275653		1.882731		-0.010154		0.001488		0.005147		-4.939852		-0.791980		-0.048570		-0.351547		1.268488		1.872242		0.029364		-0.033770		-0.028890		
0.966394		-62.331174		721.271225		175.219603		0.072001		0.000000		0.250151		-1.022523		11.832323		2.874441		59.550468		845.232718		140.139077		-0.164447		0.000000		0.266379		1.894653		26.892037		4.458741		9.864266		-1.449431		-4.945369		0.380864		1.275657		1.882786		-0.012952		0.001903		0.006493		-5.014294		-0.811287		-0.064526		-0.351553		1.268499		1.872293		0.023997		0.003883		0.000309		
0.969323		-59.186415		730.799428		175.686794		0.071437		0.000000		0.249929		-1.004177		12.399192		2.980803		61.835345		860.342380		132.943692		-0.164358		0.000000		0.267461		1.875549		26.095427		4.032483		10.062118		-1.518453		-4.945985		0.380862		1.275660		1.882833		-0.015842		0.002391		0.007787		-5.056553		-0.810583		-0.111860		-0.351561		1.268508		1.872347		0.024901		0.003992		0.000551		
0.972253		-55.649681		739.632694		175.835053		0.070968		0.000000		0.249911		-0.979297		13.015987		3.094319		63.018915		875.515655		124.906276		-0.164177		0.000000		0.268585		1.802993		25.048767		3.573739		10.248417		-1.612982		-4.909475		0.380859		1.275662		1.882872		-0.017972		0.002829		0.008609		-5.062679		-0.790126		-0.185910		-0.351573		1.268516		1.872398		0.025881		0.004039		0.000950		
0.975182		-51.955744		747.530882		175.409045		0.070680		0.000000		0.250234		-0.948189		13.642660		3.201256		63.798634		890.281371		117.032276		-0.164055		0.000000		0.269685		1.717449		23.966207		3.150584		10.385713		-1.712951		-4.837128		0.380857		1.275662		1.882907		-0.018705		0.003085		0.008711		-5.038736		-0.750984		-0.265962		-0.351587		1.268520		1.872442		0.026938		0.004015		0.001422		
